<?xml version="1.0" encoding="utf-8"?>
<!-- Generator: Adobe Illustrator 16.0.4, SVG Export Plug-In . SVG Version: 6.00 Build 0)  -->
<!DOCTYPE svg PUBLIC "-//W3C//DTD SVG 1.1//EN" "http://www.w3.org/Graphics/SVG/1.1/DTD/svg11.dtd">
<svg version="1.1" id="Ebene_1" xmlns="http://www.w3.org/2000/svg" xmlns:xlink="http://www.w3.org/1999/xlink" x="0px" y="0px"
	 width="270px" height="67.597px" viewBox="0 0 270 67.597" enable-background="new 0 0 270 67.597" xml:space="preserve">
<g>
	<g>
		<polygon fill-rule="evenodd" clip-rule="evenodd" fill="#002C77" points="7.285,0.438 7.285,30.41 14.9,30.41 14.9,37.243 
			0.011,37.243 0.011,0.438 7.285,0.438 7.285,0.438 		"/>
		<path fill-rule="evenodd" clip-rule="evenodd" fill="#002C77" d="M35.342,7.369c-0.927-0.244-1.806-0.391-2.733-0.391
			c-6.395,0-9.177,5.81-9.177,11.472c0,5.468,2.782,12.203,9.128,12.203c0.928,0,1.855-0.243,2.782-0.537V37
			c-1.073,0.438-2.196,0.633-3.367,0.633c-10.496,0-16.305-9.469-16.305-19.135C15.67,9.372,21.724,0,31.633,0
			c1.269,0,2.489,0.242,3.709,0.684V7.369L35.342,7.369L35.342,7.369z"/>
		<path fill-rule="evenodd" clip-rule="evenodd" fill="#002C77" d="M53.467,0.438l8.834,36.805H54.54l-1.366-6.198h-7.372
			l-1.318,6.198H37.26l8.542-36.805H53.467L53.467,0.438L53.467,0.438z M50.244,15.472l-0.83-5.564h-0.097l-0.781,5.564
			l-1.562,9.813h5.125L50.244,15.472L50.244,15.472L50.244,15.472z"/>
		<path fill-rule="evenodd" clip-rule="evenodd" fill="#002C77" d="M87.196,34.462h-0.098c-0.927,1.855-2.343,3.269-4.539,3.269
			c-5.566,0-6.688-8.882-6.688-12.837c0-4.248,0.83-12.789,6.589-12.789c2.295,0,3.857,1.513,4.638,3.515h0.098v-3.027h6.883v24.65
			h-6.883V34.462L87.196,34.462L87.196,34.462z M87.684,24.796c0-1.367-0.146-6.59-2.489-6.59c-2.295,0-2.44,5.175-2.44,6.59
			c0,1.562,0.097,6.638,2.538,6.638C87.489,31.434,87.684,26.114,87.684,24.796L87.684,24.796L87.684,24.796z"/>
		<path fill-rule="evenodd" clip-rule="evenodd" fill="#002C77" d="M104.626,12.593v13.521c0,1.367-0.535,5.174,1.76,5.174
			c1.854,0,1.707-2.439,1.707-3.661l0.049-15.034h6.834v15.719c0,5.71-2.684,9.419-8.785,9.419c-7.812,0-8.445-5.856-8.445-10.347
			V12.593H104.626L104.626,12.593L104.626,12.593z"/>
		<polygon fill-rule="evenodd" clip-rule="evenodd" fill="#002C77" points="127.165,5.758 127.165,12.593 129.995,12.593 
			129.995,18.254 127.165,18.254 127.165,37.243 120.282,37.243 120.282,18.254 117.89,18.254 117.89,12.593 120.282,12.593 
			120.282,5.758 127.165,5.758 127.165,5.758 		"/>
		<path fill-rule="evenodd" clip-rule="evenodd" fill="#002C77" d="M150.888,24.942c0,6.298-2.004,12.789-9.373,12.789
			c-7.371,0-9.373-6.491-9.373-12.789c0-6.296,2.002-12.837,9.373-12.837C148.884,12.104,150.888,18.646,150.888,24.942
			L150.888,24.942L150.888,24.942z M139.022,24.942c0,1.416,0.1,6.637,2.492,6.637s2.49-5.222,2.49-6.637s-0.098-6.638-2.49-6.638
			S139.022,23.526,139.022,24.942L139.022,24.942L139.022,24.942z"/>
		<path fill-rule="evenodd" clip-rule="evenodd" fill="#002C77" d="M160.933,16.546h0.096c1.172-2.393,3.123-4.442,6.051-4.442
			c2.541,0,3.908,1.952,4.25,4.198h0.096c1.125-2.197,3.273-4.198,5.908-4.198c4.441,0,4.441,4.93,4.441,8.104v17.034h-6.883V23.87
			c0-1.27,0.342-4.883-1.707-4.883c-1.611,0-1.855,1.659-1.855,2.782v15.474h-6.885V23.429c0-1.22,0.342-4.344-1.611-4.344
			c-1.707,0-1.949,1.561-1.949,2.832v1.513v13.813h-6.885v-24.65h6.885L160.933,16.546L160.933,16.546L160.933,16.546z"/>
		<path fill-rule="evenodd" clip-rule="evenodd" fill="#002C77" d="M196.216,34.462h-0.1c-0.926,1.855-2.344,3.269-4.539,3.269
			c-5.566,0-6.689-8.882-6.689-12.837c0-4.248,0.832-12.789,6.592-12.789c2.293,0,3.855,1.513,4.637,3.515h0.1v-3.027h6.881v24.65
			h-6.881V34.462L196.216,34.462L196.216,34.462z M196.702,24.796c0-1.367-0.146-6.59-2.488-6.59c-2.297,0-2.439,5.175-2.439,6.59
			c0,1.562,0.098,6.638,2.533,6.638C196.507,31.434,196.702,26.114,196.702,24.796L196.702,24.796L196.702,24.796z"/>
		<polygon fill-rule="evenodd" clip-rule="evenodd" fill="#002C77" points="215.339,5.758 215.339,12.593 218.171,12.593 
			218.171,18.254 215.339,18.254 215.339,37.243 208.454,37.243 208.454,18.254 206.063,18.254 206.063,12.593 208.454,12.593 
			208.454,5.758 215.339,5.758 215.339,5.758 		"/>
		<path fill-rule="evenodd" clip-rule="evenodd" fill="#002C77" d="M220.007,5.222c0-2.49,2-4.345,4.488-4.345
			c2.393,0,4.248,2.099,4.248,4.443c0,2.342-1.998,4.345-4.393,4.345C221.96,9.665,220.007,7.662,220.007,5.222L220.007,5.222
			L220.007,5.222z M227.813,12.593v24.65h-6.881v-24.65H227.813L227.813,12.593L227.813,12.593z"/>
		<path fill-rule="evenodd" clip-rule="evenodd" fill="#002C77" d="M249.548,24.942c0,6.298-2.002,12.789-9.369,12.789
			c-7.373,0-9.375-6.491-9.375-12.789c0-6.296,2.002-12.837,9.375-12.837C247.546,12.104,249.548,18.646,249.548,24.942
			L249.548,24.942L249.548,24.942z M237.687,24.942c0,1.416,0.1,6.637,2.492,6.637c2.389,0,2.486-5.222,2.486-6.637
			s-0.098-6.638-2.486-6.638C237.786,18.304,237.687,23.526,237.687,24.942L237.687,24.942L237.687,24.942z"/>
		<path fill-rule="evenodd" clip-rule="evenodd" fill="#002C77" d="M259.546,16.4h0.094c0.932-2.344,3.029-4.296,5.713-4.296
			c5.078,0,4.639,5.662,4.639,9.225v15.913h-6.883V23.722c0-1.269,0.486-4.686-1.707-4.686c-1.566,0-1.855,1.61-1.855,2.833v15.374
			h-6.883v-24.65h6.883V16.4L259.546,16.4L259.546,16.4z"/>
	</g>
	<g>
		<path fill-rule="evenodd" clip-rule="evenodd" fill="#5D5D5D" d="M2.868,53.081h0.041c0.326-0.858,0.977-1.508,1.913-1.508
			c2.421,0,2.747,3.659,2.747,5.479c0,1.696-0.426,5.503-2.767,5.503c-0.936,0-1.525-0.605-1.892-1.402H2.868v6.403H0V51.782h2.868
			V53.081L2.868,53.081L2.868,53.081z M4.7,57.013c0-0.609-0.082-2.824-1.018-2.824c-0.975,0-1.017,2.238-1.017,2.824
			c0,0.562,0.062,2.847,0.998,2.847C4.679,59.859,4.7,57.683,4.7,57.013L4.7,57.013L4.7,57.013z"/>
		<path fill-rule="evenodd" clip-rule="evenodd" fill="#5D5D5D" d="M13.646,61.153h-0.038c-0.388,0.797-0.978,1.402-1.893,1.402
			c-2.319,0-2.787-3.807-2.787-5.503c0-1.82,0.347-5.479,2.748-5.479c0.955,0,1.606,0.649,1.933,1.508h0.038v-1.299h2.868v10.564
			h-2.868V61.153L13.646,61.153L13.646,61.153z M13.851,57.013c0-0.586-0.061-2.824-1.036-2.824c-0.957,0-1.019,2.215-1.019,2.824
			c0,0.67,0.042,2.847,1.058,2.847C13.771,59.859,13.851,57.575,13.851,57.013L13.851,57.013L13.851,57.013z"/>
		<path fill-rule="evenodd" clip-rule="evenodd" fill="#5D5D5D" d="M21.203,51.782v1.275h0.042c0.529-0.921,1.22-1.568,2.341-1.673
			v2.867c-0.143-0.022-0.285-0.043-0.449-0.043c-1.913,0-1.934,1.296-1.934,2.867v5.271h-2.865V51.782H21.203L21.203,51.782
			L21.203,51.782z"/>
		<polygon fill-rule="evenodd" clip-rule="evenodd" fill="#5D5D5D" points="28.741,48.854 28.741,51.782 29.92,51.782 29.92,54.209 
			28.741,54.209 28.741,62.347 25.873,62.347 25.873,54.209 24.876,54.209 24.876,51.782 25.873,51.782 25.873,48.854 
			28.741,48.854 28.741,48.854 		"/>
		<path fill-rule="evenodd" clip-rule="evenodd" fill="#5D5D5D" d="M34.288,53.412h0.041c0.387-1.004,1.26-1.839,2.38-1.839
			c2.115,0,1.932,2.427,1.932,3.954v6.819h-2.868v-5.795c0-0.543,0.204-2.01-0.712-2.01c-0.65,0-0.773,0.69-0.773,1.215v6.59h-2.868
			V51.782h2.868V53.412L34.288,53.412L34.288,53.412z"/>
		<path fill-rule="evenodd" clip-rule="evenodd" fill="#5D5D5D" d="M47.443,57.848h-4.537c0.021,0.776-0.019,2.449,1.079,2.449
			c0.732,0,0.915-0.585,0.915-1.215h2.443c-0.246,1.948-1.16,3.474-3.256,3.474c-2.909,0-3.947-2.656-3.947-5.271
			c0-2.533,0.896-5.712,3.886-5.712c1.892,0,3.641,1.734,3.479,5.062L47.443,57.848L47.443,57.848L47.443,57.848z M45.022,55.777
			c0-0.69-0.142-1.945-1.038-1.945c-0.875,0-1.057,1.215-1.057,1.882v0.312h2.095V55.777L45.022,55.777L45.022,55.777z"/>
		<path fill-rule="evenodd" clip-rule="evenodd" fill="#5D5D5D" d="M51.938,51.782v1.275h0.04c0.529-0.921,1.222-1.568,2.34-1.673
			l0.001,2.867c-0.143-0.022-0.285-0.043-0.448-0.043c-1.914,0-1.932,1.296-1.932,2.867v5.271h-2.869V51.782H51.938L51.938,51.782
			L51.938,51.782z"/>
		<path fill-rule="evenodd" clip-rule="evenodd" fill="#5D5D5D" d="M60.054,48.623c0-1.067,0.834-1.861,1.872-1.861
			c0.997,0,1.771,0.898,1.771,1.901c0,1.006-0.835,1.864-1.833,1.864C60.869,50.527,60.054,49.669,60.054,48.623L60.054,48.623
			L60.054,48.623z M63.31,51.782v10.564h-2.869V51.782H63.31L63.31,51.782L63.31,51.782z"/>
		<path fill-rule="evenodd" clip-rule="evenodd" fill="#5D5D5D" d="M68.018,53.412h0.042c0.386-1.004,1.262-1.839,2.379-1.839
			c2.114,0,1.933,2.427,1.933,3.954v6.819h-2.868v-5.795c0-0.543,0.204-2.01-0.712-2.01c-0.651,0-0.773,0.69-0.773,1.215v6.59H65.15
			V51.782h2.868V53.412L68.018,53.412L68.018,53.412z"/>
		<path fill-rule="evenodd" clip-rule="evenodd" fill="#5D5D5D" d="M83.294,61.153h-0.04c-0.389,0.797-0.977,1.402-1.894,1.402
			c-2.318,0-2.788-3.807-2.788-5.503c0-1.82,0.348-5.479,2.749-5.479c0.956,0,1.606,0.649,1.933,1.508h0.04v-1.299h2.868v10.564
			h-2.868V61.153L83.294,61.153L83.294,61.153z M83.499,57.013c0-0.586-0.062-2.824-1.038-2.824c-0.956,0-1.018,2.215-1.018,2.824
			c0,0.67,0.041,2.847,1.058,2.847C83.416,59.859,83.499,57.575,83.499,57.013L83.499,57.013L83.499,57.013z"/>
		<path fill-rule="evenodd" clip-rule="evenodd" fill="#5D5D5D" d="M90.83,51.782v5.793c0,0.588-0.224,2.22,0.731,2.22
			c0.773,0,0.713-1.046,0.713-1.57l0.018-6.442h2.85v6.737c0,2.447-1.117,4.036-3.662,4.036c-3.255,0-3.519-2.511-3.519-4.436
			v-6.338H90.83L90.83,51.782L90.83,51.782z"/>
		<polygon fill-rule="evenodd" clip-rule="evenodd" fill="#5D5D5D" points="100.505,48.854 100.505,51.782 101.687,51.782 
			101.687,54.209 100.505,54.209 100.505,62.347 97.638,62.347 97.638,54.209 96.64,54.209 96.64,51.782 97.638,51.782 
			97.638,48.854 100.505,48.854 100.505,48.854 		"/>
		<path fill-rule="evenodd" clip-rule="evenodd" fill="#5D5D5D" d="M110.687,57.076c0,2.696-0.834,5.479-3.906,5.479
			c-3.07,0-3.906-2.783-3.906-5.479c0-2.701,0.836-5.503,3.906-5.503C109.853,51.573,110.687,54.375,110.687,57.076L110.687,57.076
			L110.687,57.076z M105.743,57.076c0,0.606,0.041,2.844,1.037,2.844s1.037-2.237,1.037-2.844c0-0.608-0.041-2.847-1.037-2.847
			S105.743,56.468,105.743,57.076L105.743,57.076L105.743,57.076z"/>
		<path fill-rule="evenodd" clip-rule="evenodd" fill="#5D5D5D" d="M115.146,53.476h0.043c0.488-1.024,1.301-1.902,2.521-1.902
			c1.057,0,1.627,0.835,1.77,1.798h0.041c0.469-0.939,1.363-1.798,2.461-1.798c1.854,0,1.854,2.111,1.854,3.474v7.3h-2.871v-5.732
			c0-0.544,0.143-2.092-0.709-2.092c-0.67,0-0.775,0.71-0.775,1.191v6.633h-2.867v-5.92c0-0.522,0.143-1.861-0.672-1.861
			c-0.713,0-0.812,0.667-0.812,1.212v0.649v5.92h-2.869V51.782h2.869L115.146,53.476L115.146,53.476L115.146,53.476z"/>
		<path fill-rule="evenodd" clip-rule="evenodd" fill="#5D5D5D" d="M130.126,61.153h-0.039c-0.391,0.797-0.979,1.402-1.896,1.402
			c-2.316,0-2.783-3.807-2.783-5.503c0-1.82,0.342-5.479,2.744-5.479c0.957,0,1.605,0.649,1.934,1.508h0.041v-1.299h2.867v10.564
			h-2.867V61.153L130.126,61.153L130.126,61.153z M130.327,57.013c0-0.586-0.061-2.824-1.037-2.824
			c-0.957,0-1.018,2.215-1.018,2.824c0,0.67,0.041,2.847,1.059,2.847C130.245,59.859,130.327,57.575,130.327,57.013L130.327,57.013
			L130.327,57.013z"/>
		<polygon fill-rule="evenodd" clip-rule="evenodd" fill="#5D5D5D" points="138.38,48.854 138.38,51.782 139.56,51.782 
			139.56,54.209 138.38,54.209 138.38,62.347 135.511,62.347 135.511,54.209 134.515,54.209 134.515,51.782 135.511,51.782 
			135.511,48.854 138.38,48.854 138.38,48.854 		"/>
		<path fill-rule="evenodd" clip-rule="evenodd" fill="#5D5D5D" d="M148.021,57.848h-4.533c0.018,0.776-0.021,2.449,1.078,2.449
			c0.732,0,0.912-0.585,0.912-1.215h2.441c-0.242,1.948-1.156,3.474-3.252,3.474c-2.91,0-3.947-2.656-3.947-5.271
			c0-2.533,0.896-5.712,3.885-5.712c1.893,0,3.643,1.734,3.479,5.062L148.021,57.848L148.021,57.848L148.021,57.848z
			 M145.601,55.777c0-0.69-0.139-1.945-1.035-1.945c-0.875,0-1.061,1.215-1.061,1.882v0.312h2.096V55.777L145.601,55.777
			L145.601,55.777z"/>
		<path fill-rule="evenodd" clip-rule="evenodd" fill="#5D5D5D" d="M154.095,61.153h-0.039c-0.389,0.797-0.979,1.402-1.893,1.402
			c-2.318,0-2.785-3.807-2.785-5.503c0-1.82,0.342-5.479,2.742-5.479c0.957,0,1.607,0.649,1.936,1.508h0.039v-7.618h2.865v16.884
			h-2.865V61.153L154.095,61.153L154.095,61.153z M154.298,57.013c0-0.586-0.061-2.824-1.037-2.824
			c-0.959,0-1.016,2.215-1.016,2.824c0,0.67,0.039,2.847,1.055,2.847C154.218,59.859,154.298,57.575,154.298,57.013L154.298,57.013
			L154.298,57.013z"/>
		<path fill-rule="evenodd" clip-rule="evenodd" fill="#5D5D5D" d="M166.239,53.476h0.039c0.492-1.024,1.305-1.902,2.523-1.902
			c1.057,0,1.627,0.835,1.771,1.798h0.039c0.467-0.939,1.363-1.798,2.459-1.798c1.852,0,1.852,2.111,1.852,3.474v7.3h-2.867v-5.732
			c0-0.544,0.143-2.092-0.711-2.092c-0.67,0-0.771,0.71-0.771,1.191v6.633h-2.869v-5.92c0-0.522,0.141-1.861-0.672-1.861
			c-0.713,0-0.814,0.667-0.814,1.212v0.649v5.92h-2.867V51.782h2.867L166.239,53.476L166.239,53.476L166.239,53.476z"/>
		<path fill-rule="evenodd" clip-rule="evenodd" fill="#5D5D5D" d="M181.216,61.153h-0.041c-0.387,0.797-0.979,1.402-1.891,1.402
			c-2.32,0-2.787-3.807-2.787-5.503c0-1.82,0.344-5.479,2.746-5.479c0.953,0,1.607,0.649,1.932,1.508h0.041v-1.299h2.867v10.564
			h-2.867V61.153L181.216,61.153L181.216,61.153z M181.419,57.013c0-0.586-0.061-2.824-1.037-2.824
			c-0.957,0-1.018,2.215-1.018,2.824c0,0.67,0.041,2.847,1.061,2.847C181.335,59.859,181.419,57.575,181.419,57.013L181.419,57.013
			L181.419,57.013z"/>
		<path fill-rule="evenodd" clip-rule="evenodd" fill="#5D5D5D" d="M188.774,53.412h0.041c0.385-1.004,1.26-1.839,2.379-1.839
			c2.113,0,1.93,2.427,1.93,3.954v6.819h-2.865v-5.795c0-0.543,0.205-2.01-0.715-2.01c-0.65,0-0.77,0.69-0.77,1.215v6.59h-2.869
			V51.782h2.869V53.412L188.774,53.412L188.774,53.412z"/>
		<path fill-rule="evenodd" clip-rule="evenodd" fill="#5D5D5D" d="M197.741,51.782v5.793c0,0.588-0.225,2.22,0.732,2.22
			c0.771,0,0.711-1.046,0.711-1.57l0.02-6.442h2.85v6.737c0,2.447-1.121,4.036-3.662,4.036c-3.254,0-3.52-2.511-3.52-4.436v-6.338
			H197.741L197.741,51.782L197.741,51.782z"/>
		<path fill-rule="evenodd" clip-rule="evenodd" fill="#5D5D5D" d="M204.46,51.782v-2.972c0-1.986,0.385-3.557,2.949-3.557
			c0.426,0,0.836,0.104,1.242,0.252v2.845c-0.186-0.104-0.305-0.168-0.51-0.168c-0.918,0-0.812,1.066-0.812,1.715v1.885h1.322v2.427
			h-1.322v8.138h-2.869v-8.138h-1.061v-2.427H204.46L204.46,51.782L204.46,51.782z"/>
		<path fill-rule="evenodd" clip-rule="evenodd" fill="#5D5D5D" d="M214.511,61.153h-0.037c-0.389,0.797-0.979,1.402-1.895,1.402
			c-2.32,0-2.787-3.807-2.787-5.503c0-1.82,0.346-5.479,2.748-5.479c0.955,0,1.605,0.649,1.934,1.508h0.037v-1.299h2.869v10.564
			h-2.869V61.153L214.511,61.153L214.511,61.153z M214.714,57.013c0-0.586-0.062-2.824-1.037-2.824
			c-0.959,0-1.018,2.215-1.018,2.824c0,0.67,0.045,2.847,1.057,2.847C214.632,59.859,214.714,57.575,214.714,57.013L214.714,57.013
			L214.714,57.013z"/>
		<path fill-rule="evenodd" clip-rule="evenodd" fill="#5D5D5D" d="M224.325,62.179c-0.527,0.252-1.055,0.377-1.646,0.377
			c-2.787,0-3.764-3.012-3.764-5.418c0-2.656,1.02-5.564,3.988-5.564c0.51,0,0.953,0.104,1.422,0.313v2.595
			c-0.264-0.252-0.486-0.334-0.834-0.334c-1.402,0-1.709,1.734-1.709,2.824c0,1.128,0.225,2.823,1.67,2.823
			c0.324,0,0.609-0.126,0.873-0.312V62.179L224.325,62.179L224.325,62.179z"/>
		<polygon fill-rule="evenodd" clip-rule="evenodd" fill="#5D5D5D" points="229.491,48.854 229.491,51.782 230.673,51.782 
			230.673,54.209 229.491,54.209 229.491,62.347 226.626,62.347 226.626,54.209 225.626,54.209 225.626,51.782 226.626,51.782 
			226.626,48.854 229.491,48.854 229.491,48.854 		"/>
		<path fill-rule="evenodd" clip-rule="evenodd" fill="#5D5D5D" d="M235.011,51.782v5.793c0,0.588-0.227,2.22,0.729,2.22
			c0.775,0,0.713-1.046,0.713-1.57l0.018-6.442h2.85v6.737c0,2.447-1.119,4.036-3.662,4.036c-3.254,0-3.52-2.511-3.52-4.436v-6.338
			H235.011L235.011,51.782L235.011,51.782z"/>
		<path fill-rule="evenodd" clip-rule="evenodd" fill="#5D5D5D" d="M244.007,51.782v1.275h0.037c0.529-0.921,1.225-1.568,2.34-1.673
			v2.867c-0.143-0.022-0.283-0.043-0.443-0.043c-1.918,0-1.934,1.296-1.934,2.867v5.271h-2.871V51.782H244.007L244.007,51.782
			L244.007,51.782z"/>
		<path fill-rule="evenodd" clip-rule="evenodd" fill="#5D5D5D" d="M247.329,48.623c0-1.067,0.838-1.861,1.875-1.861
			c0.994,0,1.77,0.898,1.77,1.901c0,1.006-0.836,1.864-1.828,1.864C248.146,50.527,247.329,49.669,247.329,48.623L247.329,48.623
			L247.329,48.623z M250.587,51.782v10.564h-2.867V51.782H250.587L250.587,51.782L250.587,51.782z"/>
		<path fill-rule="evenodd" clip-rule="evenodd" fill="#5D5D5D" d="M255.296,53.412h0.043c0.385-1.004,1.26-1.839,2.377-1.839
			c2.113,0,1.932,2.427,1.932,3.954v6.819h-2.867v-5.795c0-0.543,0.203-2.01-0.713-2.01c-0.648,0-0.771,0.69-0.771,1.215v6.59
			h-2.869V51.782h2.869V53.412L255.296,53.412L255.296,53.412z"/>
		<path fill-rule="evenodd" clip-rule="evenodd" fill="#5D5D5D" d="M263.825,63.75c0.041,0.667,0.223,1.504,1.039,1.504
			c1.277,0,1.1-1.985,1.1-2.887V61.03h-0.045c-0.385,0.772-0.854,1.525-1.854,1.525c-1.057,0-1.766-0.858-2.215-1.757
			c-0.504-1.047-0.67-2.406-0.67-3.578c0-1.841,0.324-5.647,2.766-5.647c0.957,0,1.648,0.649,1.973,1.484h0.045v-1.275h2.863v11.486
			c0,3.097-1.342,4.328-3.846,4.328c-2.439,0-3.559-1.441-3.699-3.847H263.825L263.825,63.75L263.825,63.75z M266.103,57.013
			c0-0.586-0.037-2.824-1.018-2.824c-0.977,0-1.037,2.215-1.037,2.824c0,0.67,0.041,2.847,1.08,2.847
			C266.042,59.859,266.103,57.575,266.103,57.013L266.103,57.013L266.103,57.013z"/>
	</g>
</g>
</svg>
